<svg width="66" height="66" viewBox="0 0 66 66" fill="none" xmlns="http://www.w3.org/2000/svg">
<path d="M33 65.5C15.0512 65.5 0.5 50.9488 0.5 33C0.5 15.0512 15.0512 0.5 33 0.5C50.9488 0.5 65.5 15.0512 65.5 33C65.5 50.9488 50.9488 65.5 33 65.5Z" fill="#D49D00"/>
<path d="M5.5 33C5.5 15.8925 18.72 1.8825 35.5 0.605C34.6738 0.5425 33.8425 0.5 33 0.5C15.0512 0.5 0.5 15.0512 0.5 33C0.5 50.9487 15.0512 65.5 33 65.5C33.8425 65.5 34.6738 65.4575 35.5 65.395C18.72 64.1175 5.5 50.1075 5.5 33Z" fill="#D57A00"/>
<path d="M30.5 28V18L10.5 33L30.5 48V38H55.5V28H30.5Z" fill="#F0F0F0"/>
</svg>
