<svg width="36" height="36" viewBox="0 0 36 36" fill="none" xmlns="http://www.w3.org/2000/svg">
<path d="M18 0C8.0604 0 0 8.0604 0 18C0 27.9396 8.0604 36 18 36C27.9396 36 36 27.9396 36 18C36 8.0604 27.9432 0 18 0ZM8.8812 18.6048L8.9568 18.4824L13.6404 11.1564C13.7088 11.052 13.8708 11.0628 13.9212 11.178C14.7024 12.9312 15.3792 15.1128 15.0624 16.47C14.9292 17.028 14.5584 17.784 14.1408 18.4824C14.0868 18.5832 14.0292 18.684 13.9644 18.7812C13.9356 18.8244 13.8852 18.8496 13.8312 18.8496H9.018C8.8884 18.8496 8.8128 18.7092 8.8812 18.6048ZM29.7504 21.1248C29.7504 21.1932 29.7108 21.2508 29.6532 21.276C29.2896 21.4308 28.0476 22.0032 27.5328 22.7196C26.2152 24.552 25.2108 27.1728 22.9608 27.1728H13.5792C10.2528 27.1728 7.56 24.4692 7.56 21.132V21.024C7.56 20.9376 7.632 20.8656 7.722 20.8656H12.9492C13.0536 20.8656 13.1292 20.9592 13.122 21.0636C13.0824 21.402 13.1472 21.7512 13.3092 22.068C13.6188 22.698 14.2632 23.0904 14.958 23.0904H17.5464V21.0708H14.9868C14.8572 21.0708 14.778 20.9196 14.8536 20.8116C14.8824 20.7684 14.9112 20.7252 14.9472 20.6748C15.1884 20.3292 15.534 19.7964 15.8796 19.188C16.1136 18.7776 16.3404 18.3384 16.524 17.8992C16.56 17.82 16.5888 17.7372 16.6212 17.658C16.6716 17.5176 16.722 17.3844 16.758 17.2548C16.794 17.1432 16.8264 17.028 16.8552 16.92C16.9416 16.5456 16.9776 16.1496 16.9776 15.7392C16.9776 15.5772 16.9704 15.408 16.956 15.2496C16.9488 15.0732 16.9272 14.8968 16.9056 14.7204C16.8912 14.5656 16.8624 14.4108 16.8336 14.2524C16.794 14.0184 16.7436 13.7844 16.686 13.5504L16.6644 13.4604C16.6212 13.2984 16.5816 13.1472 16.5312 12.9852C16.3836 12.4812 16.218 11.988 16.038 11.5272C15.9732 11.3436 15.9012 11.1672 15.8256 10.9944C15.7176 10.728 15.606 10.4868 15.5052 10.26C15.4512 10.1556 15.408 10.062 15.3648 9.9648C15.3144 9.8568 15.264 9.7488 15.21 9.6444C15.174 9.5652 15.1308 9.4896 15.102 9.4176L14.7852 8.8344C14.742 8.7552 14.814 8.658 14.9004 8.6832L16.8804 9.2196H16.8876C16.8912 9.2196 16.8912 9.2196 16.8948 9.2196L17.154 9.2952L17.442 9.3744L17.5464 9.4032V8.2296C17.5464 7.6608 18 7.2 18.5652 7.2C18.846 7.2 19.1016 7.3152 19.2816 7.5024C19.4652 7.6896 19.5804 7.9452 19.5804 8.2296V9.9756L19.7928 10.0332C19.8072 10.0404 19.8252 10.0476 19.8396 10.0584C19.89 10.0944 19.9656 10.152 20.0592 10.224C20.1348 10.2816 20.214 10.3536 20.3076 10.4292C20.4984 10.584 20.7288 10.782 20.9772 11.0088C21.042 11.0664 21.1068 11.124 21.168 11.1852C21.4884 11.484 21.8484 11.8332 22.194 12.222C22.2912 12.3336 22.3848 12.4416 22.482 12.5604C22.5756 12.6792 22.68 12.7944 22.7664 12.9096C22.8852 13.0644 23.0076 13.2264 23.1192 13.3956C23.1696 13.4748 23.2308 13.5576 23.2776 13.6368C23.4216 13.8492 23.544 14.0688 23.6628 14.2884C23.7132 14.3892 23.7636 14.5008 23.8068 14.6088C23.94 14.904 24.0444 15.2028 24.1092 15.5052C24.1308 15.57 24.1452 15.6384 24.1524 15.7032V15.7176C24.174 15.804 24.1812 15.8976 24.1884 15.9948C24.2172 16.3008 24.2028 16.6104 24.138 16.92C24.1092 17.0496 24.0732 17.172 24.03 17.3052C23.9832 17.4312 23.94 17.5608 23.8824 17.6868C23.7708 17.9424 23.6412 18.2016 23.4864 18.4392C23.436 18.5292 23.3748 18.6228 23.3172 18.7128C23.2524 18.8064 23.184 18.8964 23.1264 18.9828C23.0436 19.0944 22.9572 19.2096 22.8672 19.314C22.788 19.422 22.7088 19.53 22.6188 19.6272C22.4964 19.7748 22.3776 19.9116 22.2516 20.0448C22.1796 20.1312 22.1004 20.2212 22.0176 20.3004C21.9384 20.3904 21.8556 20.4696 21.7836 20.5416C21.6576 20.6676 21.5568 20.7612 21.4704 20.844L21.2652 21.0276C21.2364 21.0564 21.1968 21.0708 21.1572 21.0708H19.5804V23.0904H21.564C22.0068 23.0904 22.428 22.9356 22.77 22.644C22.8852 22.5432 23.3928 22.104 23.994 21.4416C24.0156 21.4164 24.0408 21.402 24.0696 21.3948L29.5452 19.8108C29.6496 19.782 29.7504 19.8576 29.7504 19.9656V21.1248Z" fill="#F8F1F1"/>
</svg>