<svg width="32" height="36" viewBox="0 0 32 36" fill="none" xmlns="http://www.w3.org/2000/svg">
<path d="M28.1498 0H4.02984C1.99584 0 0.339844 1.656 0.339844 3.708V28.044C0.339844 30.096 1.99584 31.752 4.02984 31.752H24.4418L23.4878 28.422L25.7918 30.564L27.9698 32.58L31.8398 36V3.708C31.8398 1.656 30.1838 0 28.1498 0ZM21.2018 23.508C21.2018 23.508 20.5538 22.734 20.0138 22.05C22.3718 21.384 23.2718 19.908 23.2718 19.908C22.5338 20.394 21.8318 20.736 21.2018 20.97C20.3018 21.348 19.4378 21.6 18.5918 21.744C16.8638 22.068 15.2798 21.978 13.9298 21.726C12.9038 21.528 12.0218 21.24 11.2838 20.952C10.8698 20.79 10.4198 20.592 9.96984 20.34C9.91584 20.304 9.86184 20.286 9.80784 20.25C9.77184 20.232 9.75384 20.214 9.73584 20.196C9.41184 20.016 9.23184 19.89 9.23184 19.89C9.23184 19.89 10.0958 21.33 12.3818 22.014C11.8418 22.698 11.1758 23.508 11.1758 23.508C7.19784 23.382 5.68584 20.772 5.68584 20.772C5.68584 14.976 8.27784 10.278 8.27784 10.278C10.8698 8.334 13.3358 8.388 13.3358 8.388L13.5158 8.604C10.2758 9.54 8.78184 10.962 8.78184 10.962C8.78184 10.962 9.17785 10.746 9.84384 10.44C11.7698 9.594 13.2998 9.36 13.9298 9.306C14.0378 9.288 14.1278 9.27 14.2358 9.27C15.3338 9.126 16.5758 9.09 17.8718 9.234C19.5818 9.432 21.4178 9.936 23.2898 10.962C23.2898 10.962 21.8678 9.612 18.8078 8.676L19.0598 8.388C19.0598 8.388 21.5258 8.334 24.1178 10.278C24.1178 10.278 26.7098 14.976 26.7098 20.772C26.7098 20.772 25.1798 23.382 21.2018 23.508Z" fill="#F8F1F1"/>
</svg>