<svg width="36" height="30" viewBox="0 0 36 30" fill="none" xmlns="http://www.w3.org/2000/svg">
<path d="M11.3252 29.6253C24.9068 29.6253 32.3374 18.3704 32.3374 8.61316C32.3374 8.29675 32.3304 7.97331 32.3163 7.65691C33.7618 6.61156 35.0092 5.31675 36 3.83331C34.6538 4.43227 33.2245 4.82344 31.7609 4.99347C33.3019 4.06973 34.4558 2.61857 35.0086 0.909016C33.5588 1.7682 31.9734 2.37428 30.3202 2.70128C29.2063 1.51771 27.7335 0.734041 26.1295 0.471443C24.5256 0.208845 22.8798 0.481942 21.4466 1.24851C20.0134 2.01508 18.8727 3.23243 18.2008 4.71233C17.5288 6.19224 17.3631 7.85229 17.7293 9.43582C14.7937 9.2885 11.9219 8.52592 9.29997 7.19752C6.67804 5.86911 4.36454 4.00452 2.50945 1.72464C1.5666 3.35023 1.27808 5.27383 1.70255 7.1045C2.12701 8.93517 3.23259 10.5355 4.79461 11.5803C3.62194 11.5431 2.47496 11.2274 1.44844 10.6593V10.7507C1.44739 12.4566 2.03715 14.1102 3.11746 15.4305C4.19778 16.7508 5.70199 17.6562 7.37437 17.9928C6.28808 18.2901 5.14797 18.3334 4.04227 18.1194C4.51418 19.5865 5.43236 20.8697 6.66866 21.7899C7.90495 22.71 9.39768 23.2213 10.9385 23.2522C8.32264 25.307 5.09126 26.4216 1.76484 26.4163C1.17493 26.4154 0.585599 26.3792 0 26.308C3.37928 28.476 7.3103 29.6274 11.3252 29.6253Z" fill="#F8F1F1"/>
</svg>